<svg xmlns="http://www.w3.org/2000/svg" width="121" height="121" viewBox="0 0 121 121"><defs><mask id="8ieyb" width="2" height="2" x="-1" y="-1"><path fill="#fff" d="M29 29h68v68H29z"/><path d="M63 29c18.778 0 34 15.222 34 34 0 18.777-15.222 34-34 34S29 81.777 29 63c0-18.778 15.222-34 34-34z"/></mask><filter id="8ieya" width="160.1" height="160.1" x="-18.1" y="-18.1" filterUnits="userSpaceOnUse"><feOffset dx="-2.1" dy="-2.1" in="SourceGraphic" result="FeOffset1025Out"/><feGaussianBlur in="FeOffset1025Out" result="FeGaussianBlur1026Out" stdDeviation="14 14"/></filter></defs><g><g><g><g filter="url(#8ieya)"><path fill="none" d="M63 29c18.778 0 34 15.222 34 34 0 18.777-15.222 34-34 34S29 81.777 29 63c0-18.778 15.222-34 34-34z" mask="url(&quot;#8ieyb&quot;)"/><path fill-opacity=".13" d="M63 29c18.778 0 34 15.222 34 34 0 18.777-15.222 34-34 34S29 81.777 29 63c0-18.778 15.222-34 34-34z"/></g><path fill="#5da8ef" d="M63 29c18.778 0 34 15.222 34 34 0 18.777-15.222 34-34 34S29 81.777 29 63c0-18.778 15.222-34 34-34z"/></g><g><path fill="#fff" d="M71.71 63.473l-13.362 7.714V55.76z"/></g></g></g></svg>