<svg xmlns="http://www.w3.org/2000/svg" width="19" height="15" viewBox="0 0 19 15"><g><g><path fill="#ebebeb" d="M16.511 2.524l1.847-.369S16.811 3.905 16.511 4c-.003.001-.006-.002-.009-.002-.04.853.01 1.109.01 1.109-3.53 15.21-16.52 8.486-16.52 8.486 4.727.125 5.148-1.845 5.148-1.845-2.768-.42-3.301-2.213-3.301-2.213.94.43 1.467-.37 1.467-.37C.319 8.39.738 5.476.738 5.476c.5.46 1.315.634 1.8.7C2.202 5.781-.586 2.419 1.106.68c0 0 2.036 3.682 7.428 4.035l.36-.09a3.91 3.91 0 0 1-.085-.81c0-2.139 1.725-3.874 3.852-3.874 2.564 0 3.118 1.476 3.118 1.476L17.612.31s-.201 1.85-1.1 2.214z"/></g></g></svg>