<svg xmlns="http://www.w3.org/2000/svg" width="19" height="16" viewBox="0 0 19 16"><g><g><path fill="#ebebeb" d="M11.21 3.813c-.008.457.568.104 1.101.369s1.594.567.734 2.951c0 0-1.203 3.594-2.201 3.32 0 0-1.55.063-1.834-3.32C8.725 3.75 8.147.316 6.442.492 4.738.668 2.264 2.334.585 4.55c0 0 .463 1.158 1.089 1.107.625-.05.586-.96 1.1-.738.514.224 1.309.187 1.834 3.32.525 3.135 1.307 4.784 2.201 6.273.894 1.49 1.802 1.49 2.568 1.49.765 0 3.22-1.778 5.502-4.81 2.282-3.033 4.044-6.688 4.044-7.38 0-.691.646-3.24-1.843-3.689-2.49-.45-5.836 2.065-5.87 3.69z"/></g></g></svg>